HIERARCHY
ROOT Hips
{
  OFFSET 373.837 88.1643 177.628
  CHANNELS 6 Xposition Yposition Zposition Zrotation Xrotation Yrotation
  JOINT RightUpLeg
  {
    OFFSET -9.27602 -1.55371 -0.0617006
    CHANNELS 3 Zrotation Xrotation Yrotation
    JOINT RightLeg
    {
      OFFSET 0.0569767 -41.8713 0.0644562
      CHANNELS 3 Zrotation Xrotation Yrotation
      JOINT RightFoot
      {
        OFFSET -0.463049 -43.0064 -0.0336586
        CHANNELS 3 Zrotation Xrotation Yrotation
        End Site
        {
          OFFSET 0 -7.69 17.5
        }
      }
    }
  }
  JOINT LeftUpLeg
  {
    OFFSET 9.29312 -1.63815 0.0236341
    CHANNELS 3 Zrotation Xrotation Yrotation
    JOINT LeftLeg
    {
      OFFSET 0.0670365 -41.8776 -0.0578197
      CHANNELS 3 Zrotation Xrotation Yrotation
      JOINT LeftFoot
      {
        OFFSET 0.591956 -40.8352 0.210268
        CHANNELS 3 Zrotation Xrotation Yrotation
        End Site
        {
          OFFSET 0 -7.69 17.5
        }
      }
    }
  }
  JOINT Spine
  {
    OFFSET 0.0229142 14.2949 0.0394214
    CHANNELS 3 Zrotation Xrotation Yrotation
    JOINT Spine1
    {
      OFFSET 0.0328969 9.71943 0.0194292
      CHANNELS 3 Zrotation Xrotation Yrotation
      JOINT Spine2
      {
        OFFSET 0.0292955 10.1244 -0.00440821
        CHANNELS 3 Zrotation Xrotation Yrotation
        JOINT Spine3
        {
          OFFSET 0.024556 9.71184 0.0101567
          CHANNELS 3 Zrotation Xrotation Yrotation
          JOINT Neck
          {
            OFFSET 0.152325 10.3757 0.0664015
            CHANNELS 3 Zrotation Xrotation Yrotation
            JOINT Head
            {
              OFFSET 0.134553 9.4858 0.0499874
              CHANNELS 3 Zrotation Xrotation Yrotation
              End Site
              {
                OFFSET 0 15.95 0
              }
            }
          }
          JOINT RightShoulder
          {
            OFFSET -3.19519 6.89024 -0.0330231
            CHANNELS 3 Zrotation Xrotation Yrotation
            JOINT RightArm
            {
              OFFSET -12.6524 0.0927817 0.0603028
              CHANNELS 3 Zrotation Xrotation Yrotation
              JOINT RightForeArm
              {
                OFFSET -26.4983 -0.141459 0.202928
                CHANNELS 3 Zrotation Xrotation Yrotation
                JOINT RightHand
                {
                  OFFSET -25.9883 -0.0240172 0.0141731
                  CHANNELS 3 Zrotation Xrotation Yrotation
                  JOINT RightHandThumb1
                  {
                    OFFSET -2.48905 0.190105 3.12053
                    CHANNELS 3 Zrotation Xrotation Yrotation
                    JOINT RightHandThumb2
                    {
                      OFFSET -3.68274 0 0
                      CHANNELS 3 Zrotation Xrotation Yrotation
                      JOINT RightHandThumb3
                      {
                        OFFSET -2.55832 0 0
                        CHANNELS 3 Zrotation Xrotation Yrotation
                        End Site
                        {
                          OFFSET -2.194 0 0
                        }
                      }
                    }
                  }
                  JOINT RightInHandIndex
                  {
                    OFFSET -3.22368 0.508421 1.97842
                    CHANNELS 3 Zrotation Xrotation Yrotation
                    JOINT RightHandIndex1
                    {
                      OFFSET -5.21684 -0.091368 0.999158
                      CHANNELS 3 Zrotation Xrotation Yrotation
                      JOINT RightHandIndex2
                      {
                        OFFSET -3.61937 0 0
                        CHANNELS 3 Zrotation Xrotation Yrotation
                        JOINT RightHandIndex3
                        {
                          OFFSET -2.0521 0 0
                          CHANNELS 3 Zrotation Xrotation Yrotation
                          End Site
                          {
                            OFFSET -1.805 0 0
                          }
                        }
                      }
                    }
                  }
                  JOINT RightInHandMiddle
                  {
                    OFFSET -3.38211 0.517263 0.756737
                    CHANNELS 3 Zrotation Xrotation Yrotation
                    JOINT RightHandMiddle1
                    {
                      OFFSET -5.17411 -0.084 0.313895
                      CHANNELS 3 Zrotation Xrotation Yrotation
                      JOINT RightHandMiddle2
                      {
                        OFFSET -3.94947 0 0
                        CHANNELS 3 Zrotation Xrotation Yrotation
                        JOINT RightHandMiddle3
                        {
                          OFFSET -2.47579 0 0
                          CHANNELS 3 Zrotation Xrotation Yrotation
                          End Site
                          {
                            OFFSET -1.975 0 0
                          }
                        }
                      }
                    }
                  }
                  JOINT RightInHandRing
                  {
                    OFFSET -3.36516 0.537895 -0.128947
                    CHANNELS 3 Zrotation Xrotation Yrotation
                    JOINT RightHandRing1
                    {
                      OFFSET -4.63474 -0.022105 -0.478947
                      CHANNELS 3 Zrotation Xrotation Yrotation
                      JOINT RightHandRing2
                      {
                        OFFSET -3.44238 0 0
                        CHANNELS 3 Zrotation Xrotation Yrotation
                        JOINT RightHandRing3
                        {
                          OFFSET -2.3881 0 0
                          CHANNELS 3 Zrotation Xrotation Yrotation
                          End Site
                          {
                            OFFSET -1.857 0 0
                          }
                        }
                      }
                    }
                  }
                  JOINT RightInHandPinky
                  {
                    OFFSET -3.16105 0.469368 -1.20179
                    CHANNELS 3 Zrotation Xrotation Yrotation
                    JOINT RightHandPinky1
                    {
                      OFFSET -4.14105 -0.022105 -1.09053
                      CHANNELS 3 Zrotation Xrotation Yrotation
                      JOINT RightHandPinky2
                      {
                        OFFSET -2.75653 0 0
                        CHANNELS 3 Zrotation Xrotation Yrotation
                        JOINT RightHandPinky3
                        {
                          OFFSET -1.74189 0 0
                          CHANNELS 3 Zrotation Xrotation Yrotation
                          End Site
                          {
                            OFFSET -1.645 0 0
                          }
                        }
                      }
                    }
                  }
                }
              }
            }
          }
          JOINT LeftShoulder
          {
            OFFSET 3.28609 6.87948 -0.0751467
            CHANNELS 3 Zrotation Xrotation Yrotation
            JOINT LeftArm
            {
              OFFSET 12.831 -0.0663252 -0.1321
              CHANNELS 3 Zrotation Xrotation Yrotation
              JOINT LeftForeArm
              {
                OFFSET 26.5106 -0.082189 -0.0903645
                CHANNELS 3 Zrotation Xrotation Yrotation
                JOINT LeftHand
                {
                  OFFSET 25.9965 -0.0307163 -0.0535747
                  CHANNELS 3 Zrotation Xrotation Yrotation
                  JOINT LeftHandThumb1
                  {
                    OFFSET 2.48905 0.190105 3.12053
                    CHANNELS 3 Zrotation Xrotation Yrotation
                    JOINT LeftHandThumb2
                    {
                      OFFSET 3.68274 0 0
                      CHANNELS 3 Zrotation Xrotation Yrotation
                      JOINT LeftHandThumb3
                      {
                        OFFSET 2.55832 0 0
                        CHANNELS 3 Zrotation Xrotation Yrotation
                        End Site
                        {
                          OFFSET 2.194 0 0
                        }
                      }
                    }
                  }
                  JOINT LeftInHandIndex
                  {
                    OFFSET 3.22368 0.508421 1.97842
                    CHANNELS 3 Zrotation Xrotation Yrotation
                    JOINT LeftHandIndex1
                    {
                      OFFSET 5.21684 -0.091368 0.999158
                      CHANNELS 3 Zrotation Xrotation Yrotation
                      JOINT LeftHandIndex2
                      {
                        OFFSET 3.61937 0 0
                        CHANNELS 3 Zrotation Xrotation Yrotation
                        JOINT LeftHandIndex3
                        {
                          OFFSET 2.0521 0 0
                          CHANNELS 3 Zrotation Xrotation Yrotation
                          End Site
                          {
                            OFFSET 1.805 0 0
                          }
                        }
                      }
                    }
                  }
                  JOINT LeftInHandMiddle
                  {
                    OFFSET 3.38211 0.517263 0.756737
                    CHANNELS 3 Zrotation Xrotation Yrotation
                    JOINT LeftHandMiddle1
                    {
                      OFFSET 5.17411 -0.084 0.313895
                      CHANNELS 3 Zrotation Xrotation Yrotation
                      JOINT LeftHandMiddle2
                      {
                        OFFSET 3.94947 0 0
                        CHANNELS 3 Zrotation Xrotation Yrotation
                        JOINT LeftHandMiddle3
                        {
                          OFFSET 2.47579 0 0
                          CHANNELS 3 Zrotation Xrotation Yrotation
                          End Site
                          {
                            OFFSET 1.975 0 0
                          }
                        }
                      }
                    }
                  }
                  JOINT LeftInHandRing
                  {
                    OFFSET 3.36516 0.537895 -0.128947
                    CHANNELS 3 Zrotation Xrotation Yrotation
                    JOINT LeftHandRing1
                    {
                      OFFSET 4.63474 -0.022105 -0.478947
                      CHANNELS 3 Zrotation Xrotation Yrotation
                      JOINT LeftHandRing2
                      {
                        OFFSET 3.44238 0 0
                        CHANNELS 3 Zrotation Xrotation Yrotation
                        JOINT LeftHandRing3
                        {
                          OFFSET 2.3881 0 0
                          CHANNELS 3 Zrotation Xrotation Yrotation
                          End Site
                          {
                            OFFSET 1.857 0 0
                          }
                        }
                      }
                    }
                  }
                  JOINT LeftInHandPinky
                  {
                    OFFSET 3.16105 0.469368 -1.20179
                    CHANNELS 3 Zrotation Xrotation Yrotation
                    JOINT LeftHandPinky1
                    {
                      OFFSET 4.14105 -0.022105 -1.09053
                      CHANNELS 3 Zrotation Xrotation Yrotation
                      JOINT LeftHandPinky2
                      {
                        OFFSET 2.75653 0 0
                        CHANNELS 3 Zrotation Xrotation Yrotation
                        JOINT LeftHandPinky3
                        {
                          OFFSET 1.74189 0 0
                          CHANNELS 3 Zrotation Xrotation Yrotation
                          End Site
                          {
                            OFFSET 1.645 0 0
                          }
                        }
                      }
                    }
                  }
                }
              }
            }
          }
        }
      }
    }
  }
}
MOTION
Frames: 3
Frame Time: 0.00833333
3.000006579504702700e+02 5.426341853784764132e-04 -1.935726618310494194e-04 6.997919518135757404e-03 3.526067491030190904e-02 6.209058565914962746e-02 -8.027142511049124851e-02 -4.260796819563347597e-03 -1.398181604777392895e-01 -2.791755606440077231e-04 1.691545855247935650e-03 1.132011812167278177e-02 -3.202527055905268847e-03 -2.729094632412513467e-04 -2.174262709887523053e-03 -2.646042839919554579e-02 -3.885069693932277635e-02 -6.444706934070600080e-02 1.100462286561001805e-02 -1.557268285778285952e-02 -3.575465528311294779e-03 -8.181405911057936658e-03 1.533472957407703251e-02 -1.457288951124615164e-02 3.333654763701857093e-02 -9.955850592870973265e-03 -4.623150546200502364e-02 7.137816875135970587e-03 -3.265403116210135320e-03 -1.033583260256500970e-02 1.175933495370324808e-02 -4.796404664449436216e-03 -1.630395338444519393e-02 -2.002569751094616674e-03 -1.252863194532289855e-04 2.118118236486381256e-03 -1.250089523383199645e-03 8.684515027085798521e-04 -4.161992506117679551e-04 -6.657540075942483190e-03 1.073450410820746010e-03 2.367721211159463934e-02 1.638859642679366124e-02 8.037562536378793643e-03 -1.732472955864786113e-01 -1.089319575202414014e-01 4.037605405922585211e-01 1.909375143773943684e-01 -2.369616733247457141e-01 -1.809280175576304939e-01 -9.192414888589502120e-02 -8.268057501148742827e-03 2.066299960020668083e-02 -4.301136846249035972e-02 0.000000000000000000e+00 0.000000000000000000e+00 0.000000000000000000e+00 3.869944936560039323e-15 -1.046716593605051935e-15 0.000000000000000000e+00 1.669139654668897136e-15 -3.148878273124917778e-15 0.000000000000000000e+00 -3.836705838175124851e-15 -1.742536955514043328e-15 6.650903552355647734e-16 0.000000000000000000e+00 0.000000000000000000e+00 0.000000000000000000e+00 0.000000000000000000e+00 -1.560885595504367303e-15 -7.094404285743693377e-15 0.000000000000000000e+00 -3.079591278742961369e-15 -1.948786712762496523e-14 -3.836705838175124851e-15 -1.742536955514043328e-15 6.650903552355647734e-16 0.000000000000000000e+00 1.056560720924559006e-15 -1.858554697760271777e-15 0.000000000000000000e+00 -4.429912921527242306e-15 -1.293593373423999451e-14 0.000000000000000000e+00 -6.423127030999658393e-15 -4.042615532731885171e-14 -3.836705838175124851e-15 -1.742536955514043328e-15 6.650903552355647734e-16 0.000000000000000000e+00 0.000000000000000000e+00 0.000000000000000000e+00 0.000000000000000000e+00 -3.068168508698289369e-15 -3.131183138961399100e-15 0.000000000000000000e+00 -2.686730070348283040e-15 -4.415071819116081041e-14 -3.836705838175124851e-15 -1.742536955514043328e-15 6.650903552355647734e-16 0.000000000000000000e+00 0.000000000000000000e+00 0.000000000000000000e+00 0.000000000000000000e+00 1.456384196169542938e-15 -1.209128953129253457e-14 0.000000000000000000e+00 1.653374746637740978e-16 -2.120454690369543071e-14 -1.441834427936634216e-02 1.881444625431228507e-02 4.598940815269729476e-02 -6.265552874037613740e-02 -2.718907846154618516e-02 8.825720370148304461e-02 -2.567109609721882763e-02 -4.096570590193168715e-02 -4.464626088795770054e-02 8.939831418260872631e-03 4.509173965820490598e-02 2.575352204874762838e-02 0.000000000000000000e+00 0.000000000000000000e+00 0.000000000000000000e+00 -1.067402639373807605e-15 2.796655804081433338e-15 0.000000000000000000e+00 -9.568753063796687522e-15 4.063594214076831541e-16 0.000000000000000000e+00 1.852968282450916410e-15 2.830557090603020777e-15 5.849373048638743468e-17 0.000000000000000000e+00 0.000000000000000000e+00 0.000000000000000000e+00 0.000000000000000000e+00 -1.166543863766833615e-15 3.190691699229744255e-15 0.000000000000000000e+00 6.798084982322406561e-17 1.140292386983439878e-15 1.852968282450916410e-15 2.830557090603020777e-15 5.849373048638743468e-17 0.000000000000000000e+00 5.251900838313337733e-16 3.481520281119181192e-15 0.000000000000000000e+00 1.890962678826750226e-15 5.294234149040137802e-15 0.000000000000000000e+00 -1.221858454618242776e-15 5.886045844193344191e-15 1.852968282450916410e-15 2.830557090603020777e-15 5.849373048638743468e-17 0.000000000000000000e+00 0.000000000000000000e+00 0.000000000000000000e+00 0.000000000000000000e+00 -2.097901411822975681e-16 8.846701957062073143e-16 0.000000000000000000e+00 -3.539982985833290677e-17 3.854119123188798001e-15 1.852968282450916410e-15 2.830557090603020777e-15 5.849373048638743468e-17 0.000000000000000000e+00 0.000000000000000000e+00 0.000000000000000000e+00 0.000000000000000000e+00 2.107128286724299560e-15 -2.793402276597915443e-18 0.000000000000000000e+00 1.143569583099380893e-15 4.795167541956568933e-15
2.999993658834051189e+02 -3.669602872051262689e-04 -2.263860976503146924e-03 -1.988666033579783096e-03 -4.899376771876378343e-03 -8.817315146894490543e-03 1.311568179609562401e-02 2.369491349981587593e-03 2.304883389268796295e-02 3.233671044870402127e-03 -4.837547662510133543e-05 -2.370163310799230753e-03 -1.511747828588415679e-03 -1.472457313937085678e-03 -8.911421608443047130e-04 4.800985443178836312e-03 7.523514278490923274e-03 8.990288440979272988e-03 -3.237053157115769332e-03 2.560967066921425363e-03 6.813721096472171628e-04 2.444916107595293455e-03 -3.447365941357999775e-03 3.278058329142717348e-03 8.732994735207831247e-03 -2.439746869226081319e-03 -1.498835260956773822e-02 1.446930592794805999e-03 -1.273735493873091743e-03 -3.613661842347141474e-03 2.902245001086968534e-03 -2.113043457962150186e-03 -5.513578540866375874e-03 1.206368207170303625e-04 7.266433541376340823e-05 -2.321028396727963081e-04 -2.869305253418045825e-04 -4.547605582303638062e-04 1.147089151668194721e-03 -1.034887047288905737e-02 7.030964597276806796e-03 2.146418308341794048e-02 -2.136159716646779394e-02 9.845719955574549348e-03 7.626761143520065234e-02 -6.946899796322064669e-02 1.103996219292093101e-01 7.232243484890968355e-02 -1.036661272620518354e-01 -1.904845707542478228e-01 -3.549718149414288204e-02 -1.363306005136377674e-02 -5.036715653504135123e-03 -1.159100596845114191e-02 0.000000000000000000e+00 0.000000000000000000e+00 0.000000000000000000e+00 1.044929127379497119e-15 2.649355611007763223e-15 0.000000000000000000e+00 4.990084291366995802e-15 4.332865559854895889e-15 0.000000000000000000e+00 -1.610990908178639295e-16 1.691704347731834252e-15 1.780742750783661245e-15 0.000000000000000000e+00 0.000000000000000000e+00 0.000000000000000000e+00 0.000000000000000000e+00 4.865692792558652081e-15 7.363238754616660479e-15 0.000000000000000000e+00 -1.018865033180369294e-17 1.205889141842636956e-14 -1.610990908178639295e-16 1.691704347731834252e-15 1.780742750783661245e-15 0.000000000000000000e+00 -1.702706734863648557e-15 -3.398470458458615585e-15 0.000000000000000000e+00 1.369304390951395620e-15 9.665321983670116472e-15 0.000000000000000000e+00 2.136848711970808279e-14 1.154523282283196586e-13 -1.610990908178639295e-16 1.691704347731834252e-15 1.780742750783661245e-15 0.000000000000000000e+00 0.000000000000000000e+00 0.000000000000000000e+00 0.000000000000000000e+00 2.574370617841034773e-15 -3.418308905872796813e-15 0.000000000000000000e+00 9.511513803133088011e-15 6.499736033749122617e-14 -1.610990908178639295e-16 1.691704347731834252e-15 1.780742750783661245e-15 0.000000000000000000e+00 0.000000000000000000e+00 0.000000000000000000e+00 0.000000000000000000e+00 -3.256040488934315045e-15 7.011792930908965527e-15 0.000000000000000000e+00 -4.508231466299190826e-16 2.521972168837883090e-14 -8.586676965327852060e-03 1.595860523101193251e-02 1.356352090152026894e-02 4.517267229366384723e-02 2.450635832066032360e-02 -6.413029476097216464e-02 3.921953157792935213e-02 -4.652636458820279437e-03 4.993649152867025293e-02 3.767537926284003982e-03 1.296152745345903468e-01 7.007752604585954122e-03 0.000000000000000000e+00 0.000000000000000000e+00 0.000000000000000000e+00 1.661605746112650414e-15 -3.187310111531168857e-15 0.000000000000000000e+00 7.038061198275904658e-15 -3.168673577721977196e-15 0.000000000000000000e+00 -7.112339959684816666e-16 -1.291811671195540520e-16 -6.732454982068439406e-17 0.000000000000000000e+00 0.000000000000000000e+00 0.000000000000000000e+00 0.000000000000000000e+00 4.106141397525680327e-17 -1.806761839352136012e-15 0.000000000000000000e+00 -5.243287059309980789e-16 4.776486783518994927e-16 -7.112339959684816666e-16 -1.291811671195540520e-16 -6.732454982068439406e-17 0.000000000000000000e+00 1.421879162192812925e-15 -1.193337466009245611e-15 0.000000000000000000e+00 -1.159359791496076883e-15 -3.285170114252094852e-15 0.000000000000000000e+00 2.055445219267784410e-15 3.868761958497629216e-16 -7.112339959684816666e-16 -1.291811671195540520e-16 -6.732454982068439406e-17 0.000000000000000000e+00 0.000000000000000000e+00 0.000000000000000000e+00 0.000000000000000000e+00 -1.706856622345181815e-15 1.059355674614549260e-15 0.000000000000000000e+00 -7.680142509612749895e-16 -3.121567529730999623e-15 -7.112339959684816666e-16 -1.291811671195540520e-16 -6.732454982068439406e-17 0.000000000000000000e+00 0.000000000000000000e+00 0.000000000000000000e+00 0.000000000000000000e+00 -1.236564346165825709e-15 2.211125214984436733e-15 0.000000000000000000e+00 -1.134505281300158173e-15 -3.495499518901901073e-15
2.999997476342376785e+02 -1.685548289752001835e-04 1.059672604542887323e-03 -4.583436870554105994e-03 -2.513321906771293079e-02 -4.328846888082395900e-02 5.032967505314232121e-02 4.572343352834039309e-03 8.223131969112393302e-02 -1.855701780243216572e-03 -1.905610214496807758e-03 3.785205854063628667e-03 3.332970272955689938e-03 1.450912996359701669e-04 1.696538457026593692e-03 1.956140715812067221e-02 2.782386012561171781e-02 4.942695809873230706e-02 -6.539872973188097342e-03 8.801823680826995761e-03 4.007619839490250344e-05 4.757715852644797683e-03 -9.423705882148317170e-03 8.751322226740404844e-03 -1.609289758582642046e-02 4.244875517139340415e-03 1.556423316048214170e-02 -3.396087151082380004e-03 1.398422253254787443e-03 3.155215971576498784e-03 -5.877529978083328131e-03 2.061077406495648041e-03 4.874504997858230063e-03 6.947003200064178754e-04 5.899275146990918780e-05 3.103177479902910745e-04 3.429263601977700104e-04 -4.094988416892383822e-04 1.474560474208549358e-03 -3.570311549010601361e-03 8.235516771576065209e-04 8.570842409716110388e-03 -1.941608916027526971e-02 -9.112092142797663039e-04 1.590678462496142309e-01 9.491645646393444269e-02 -3.317420796118105142e-01 -1.593726988471160788e-01 2.028979958941686812e-01 1.689392385105878691e-01 9.344146915246441532e-02 9.504743022535285663e-03 -1.534317667313571561e-02 3.907726548770146940e-02 0.000000000000000000e+00 0.000000000000000000e+00 0.000000000000000000e+00 -3.062379418152655770e-15 -4.305154913529242755e-16 0.000000000000000000e+00 -3.290987299523592651e-15 9.772768663134095749e-16 0.000000000000000000e+00 3.503708788222011760e-15 8.835079328529250397e-16 -1.143450566208630132e-15 0.000000000000000000e+00 0.000000000000000000e+00 0.000000000000000000e+00 0.000000000000000000e+00 -5.542350775452981760e-16 3.114352604645222168e-15 0.000000000000000000e+00 -4.916534021435599354e-15 -3.173991202559005050e-14 3.503708788222011760e-15 8.835079328529250397e-16 -1.143450566208630132e-15 0.000000000000000000e+00 -5.934348274065145392e-16 2.142028297107771782e-15 0.000000000000000000e+00 3.772624266393774611e-15 7.476516521295102222e-15 0.000000000000000000e+00 -3.345190283346415190e-15 -1.058880932211895800e-14 3.503708788222011760e-15 8.835079328529250397e-16 -1.143450566208630132e-15 0.000000000000000000e+00 0.000000000000000000e+00 0.000000000000000000e+00 0.000000000000000000e+00 1.051848258067765125e-15 2.578794633998759393e-15 0.000000000000000000e+00 -2.468842938732872018e-15 7.363571669436603781e-15 3.503708788222011760e-15 8.835079328529250397e-16 -1.143450566208630132e-15 0.000000000000000000e+00 0.000000000000000000e+00 0.000000000000000000e+00 0.000000000000000000e+00 -4.364037130539990903e-16 6.833032643932645990e-15 0.000000000000000000e+00 -1.115085308653624861e-15 4.467745894184527683e-15 3.597849527433924846e-03 -4.526362909595344278e-04 -8.219464193588672113e-03 1.316017595092509526e-02 -5.360968275761336319e-03 -1.304468443758957999e-02 -2.444630801523953526e-02 4.439903833966545033e-02 -1.595864555248870803e-02 -1.007392917133068458e-02 -1.046259976306315037e-01 -2.603059676129020061e-02 0.000000000000000000e+00 0.000000000000000000e+00 0.000000000000000000e+00 -2.129011234232477370e-16 -1.069148434734018501e-15 0.000000000000000000e+00 5.608462705866491850e-15 9.395100676618217430e-16 0.000000000000000000e+00 -1.253906288256776132e-15 -1.812789413473019424e-15 -7.014270270482472492e-17 0.000000000000000000e+00 0.000000000000000000e+00 0.000000000000000000e+00 0.000000000000000000e+00 1.185973185366649769e-15 -3.103756788666287418e-15 0.000000000000000000e+00 3.564198689251005022e-16 -2.451104856827461609e-15 -1.253906288256776132e-15 -1.812789413473019424e-15 -7.014270270482472492e-17 0.000000000000000000e+00 -5.186411385132938787e-16 -3.063808491309049056e-15 0.000000000000000000e+00 -1.123648025195403200e-15 -4.397889118102378052e-15 0.000000000000000000e+00 5.631866802795673674e-16 -6.038123561738631823e-15 -1.253906288256776132e-15 -1.812789413473019424e-15 -7.014270270482472492e-17 0.000000000000000000e+00 0.000000000000000000e+00 0.000000000000000000e+00 0.000000000000000000e+00 7.131793830187421094e-16 -2.366656861970207186e-15 0.000000000000000000e+00 4.595700783445918347e-16 -3.449777184606437230e-15 -1.253906288256776132e-15 -1.812789413473019424e-15 -7.014270270482472492e-17 0.000000000000000000e+00 0.000000000000000000e+00 0.000000000000000000e+00 0.000000000000000000e+00 -1.155284958916672508e-15 -1.219685173138850313e-15 0.000000000000000000e+00 -2.326426580815707265e-16 -4.167084007797499493e-15
